<mxfile host="app.diagrams.net" modified="2021-01-12T10:09:06.531Z" agent="5.0 (Windows)" etag="iCTkqLcs0HuIoB4Lo5Su" version="14.1.9" type="github">
  <diagram id="3mR3uw_zDgaZqPfmFG9w" name="Page-1">
    <mxGraphModel dx="2435" dy="-72" grid="1" gridSize="10" guides="1" tooltips="1" connect="1" arrows="1" fold="1" page="1" pageScale="1" pageWidth="850" pageHeight="1100" math="0" shadow="0">
      <root>
        <mxCell id="0" />
        <mxCell id="1" parent="0" />
        <mxCell id="DFjXbLX4fR952YsR5oUh-157" value="" style="rounded=0;whiteSpace=wrap;html=1;shadow=1;fillColor=#FFF4C3;" vertex="1" parent="1">
          <mxGeometry x="-130" y="1300" width="1330" height="800" as="geometry" />
        </mxCell>
        <mxCell id="DFjXbLX4fR952YsR5oUh-158" value="" style="rounded=0;whiteSpace=wrap;html=1;shadow=1;fillColor=#C2FF85;" vertex="1" parent="1">
          <mxGeometry x="-95" y="1470" width="1250" height="570" as="geometry" />
        </mxCell>
        <mxCell id="DFjXbLX4fR952YsR5oUh-159" value="" style="rounded=0;whiteSpace=wrap;html=1;shadow=1;fillColor=#85CC50;" vertex="1" parent="1">
          <mxGeometry x="125" y="1500" width="810" height="510" as="geometry" />
        </mxCell>
        <mxCell id="DFjXbLX4fR952YsR5oUh-160" value="" style="rounded=0;whiteSpace=wrap;html=1;shadow=1;fillColor=#00FF00;" vertex="1" parent="1">
          <mxGeometry x="145" y="1630" width="760" height="250" as="geometry" />
        </mxCell>
        <mxCell id="DFjXbLX4fR952YsR5oUh-161" value="&lt;b&gt;&lt;font face=&quot;Times New Roman&quot;&gt;Master Driver&lt;/font&gt;&lt;/b&gt;" style="rounded=0;whiteSpace=wrap;html=1;shadow=1;" vertex="1" parent="1">
          <mxGeometry x="165" y="1660" width="120" height="60" as="geometry" />
        </mxCell>
        <mxCell id="DFjXbLX4fR952YsR5oUh-162" value="&lt;b&gt;&lt;font face=&quot;Times New Roman&quot;&gt;Master Monitor&lt;br&gt;&lt;/font&gt;&lt;/b&gt;" style="rounded=0;whiteSpace=wrap;html=1;shadow=1;" vertex="1" parent="1">
          <mxGeometry x="165" y="1770" width="120" height="60" as="geometry" />
        </mxCell>
        <mxCell id="DFjXbLX4fR952YsR5oUh-163" value="&lt;b&gt;&lt;font face=&quot;Times New Roman&quot;&gt;Slave Monitor&lt;br&gt;&lt;/font&gt;&lt;/b&gt;" style="rounded=0;whiteSpace=wrap;html=1;shadow=1;" vertex="1" parent="1">
          <mxGeometry x="745" y="1770" width="120" height="60" as="geometry" />
        </mxCell>
        <mxCell id="DFjXbLX4fR952YsR5oUh-164" value="&lt;font style=&quot;font-size: 18px&quot;&gt;&lt;b&gt;&lt;font face=&quot;Times New Roman&quot;&gt;Master Scoreboard&lt;/font&gt;&lt;/b&gt;&lt;/font&gt;" style="rounded=1;whiteSpace=wrap;html=1;shadow=1;" vertex="1" parent="1">
          <mxGeometry x="165" y="1550" width="720" height="60" as="geometry" />
        </mxCell>
        <mxCell id="DFjXbLX4fR952YsR5oUh-165" value="&lt;font style=&quot;font-size: 18px&quot;&gt;&lt;b&gt;&lt;font face=&quot;Times New Roman&quot;&gt;Slave Scoreboard&lt;/font&gt;&lt;/b&gt;&lt;/font&gt;" style="rounded=1;whiteSpace=wrap;html=1;shadow=1;" vertex="1" parent="1">
          <mxGeometry x="165" y="1900" width="730" height="60" as="geometry" />
        </mxCell>
        <mxCell id="DFjXbLX4fR952YsR5oUh-166" value="&lt;font style=&quot;font-size: 18px&quot;&gt;&lt;b&gt;&lt;font face=&quot;Times New Roman&quot;&gt;DUT&lt;/font&gt;&lt;/b&gt;&lt;/font&gt;" style="rounded=0;whiteSpace=wrap;html=1;shadow=1;" vertex="1" parent="1">
          <mxGeometry x="425" y="1680" width="200" height="190" as="geometry" />
        </mxCell>
        <mxCell id="DFjXbLX4fR952YsR5oUh-167" value="&lt;b&gt;&lt;font face=&quot;Times New Roman&quot;&gt;Master Driver&lt;/font&gt;&lt;/b&gt;" style="rounded=0;whiteSpace=wrap;html=1;shadow=1;" vertex="1" parent="1">
          <mxGeometry x="165" y="1660" width="120" height="60" as="geometry" />
        </mxCell>
        <mxCell id="DFjXbLX4fR952YsR5oUh-168" value="&lt;b&gt;&lt;font face=&quot;Times New Roman&quot;&gt;Master Driver&lt;/font&gt;&lt;/b&gt;" style="rounded=0;whiteSpace=wrap;html=1;shadow=1;" vertex="1" parent="1">
          <mxGeometry x="175" y="1670" width="120" height="60" as="geometry" />
        </mxCell>
        <mxCell id="DFjXbLX4fR952YsR5oUh-169" value="&lt;b&gt;&lt;font face=&quot;Times New Roman&quot;&gt;Master Driver&lt;/font&gt;&lt;/b&gt;" style="rounded=0;whiteSpace=wrap;html=1;shadow=1;" vertex="1" parent="1">
          <mxGeometry x="185" y="1680" width="120" height="60" as="geometry" />
        </mxCell>
        <mxCell id="DFjXbLX4fR952YsR5oUh-170" value="&lt;b&gt;&lt;font face=&quot;Times New Roman&quot;&gt;Master Monitor&lt;br&gt;&lt;/font&gt;&lt;/b&gt;" style="rounded=0;whiteSpace=wrap;html=1;shadow=1;" vertex="1" parent="1">
          <mxGeometry x="165" y="1770" width="120" height="60" as="geometry" />
        </mxCell>
        <mxCell id="DFjXbLX4fR952YsR5oUh-171" value="&lt;b&gt;&lt;font face=&quot;Times New Roman&quot;&gt;Master Monitor&lt;br&gt;&lt;/font&gt;&lt;/b&gt;" style="rounded=0;whiteSpace=wrap;html=1;shadow=1;" vertex="1" parent="1">
          <mxGeometry x="175" y="1780" width="120" height="60" as="geometry" />
        </mxCell>
        <mxCell id="DFjXbLX4fR952YsR5oUh-172" value="&lt;b&gt;&lt;font face=&quot;Times New Roman&quot;&gt;Master Monitor&lt;br&gt;&lt;/font&gt;&lt;/b&gt;" style="rounded=0;whiteSpace=wrap;html=1;shadow=1;" vertex="1" parent="1">
          <mxGeometry x="185" y="1790" width="120" height="60" as="geometry" />
        </mxCell>
        <mxCell id="DFjXbLX4fR952YsR5oUh-173" value="&lt;b&gt;&lt;font face=&quot;Times New Roman&quot;&gt;Slave Monitor&lt;br&gt;&lt;/font&gt;&lt;/b&gt;" style="rounded=0;whiteSpace=wrap;html=1;shadow=1;" vertex="1" parent="1">
          <mxGeometry x="745" y="1770" width="120" height="60" as="geometry" />
        </mxCell>
        <mxCell id="DFjXbLX4fR952YsR5oUh-174" value="&lt;b&gt;&lt;font face=&quot;Times New Roman&quot;&gt;Slave Monitor&lt;br&gt;&lt;/font&gt;&lt;/b&gt;" style="rounded=0;whiteSpace=wrap;html=1;shadow=1;" vertex="1" parent="1">
          <mxGeometry x="755" y="1780" width="120" height="60" as="geometry" />
        </mxCell>
        <mxCell id="DFjXbLX4fR952YsR5oUh-175" value="&lt;b&gt;&lt;font face=&quot;Times New Roman&quot;&gt;Slave Monitor&lt;br&gt;&lt;/font&gt;&lt;/b&gt;" style="rounded=0;whiteSpace=wrap;html=1;shadow=1;" vertex="1" parent="1">
          <mxGeometry x="765" y="1790" width="120" height="60" as="geometry" />
        </mxCell>
        <mxCell id="DFjXbLX4fR952YsR5oUh-176" value="" style="html=1;shadow=1;dashed=0;align=center;verticalAlign=middle;shape=mxgraph.arrows2.twoWayArrow;dy=0.3;dx=15.67;" vertex="1" parent="1">
          <mxGeometry x="315" y="1720" width="100" height="60" as="geometry" />
        </mxCell>
        <mxCell id="DFjXbLX4fR952YsR5oUh-177" value="" style="html=1;shadow=1;dashed=0;align=center;verticalAlign=middle;shape=mxgraph.arrows2.twoWayArrow;dy=0.3;dx=15.67;" vertex="1" parent="1">
          <mxGeometry x="315" y="1740" width="100" height="60" as="geometry" />
        </mxCell>
        <mxCell id="DFjXbLX4fR952YsR5oUh-178" value="&lt;b&gt;&lt;font face=&quot;Times New Roman&quot;&gt;Mas_itf&lt;/font&gt;&lt;/b&gt;" style="html=1;shadow=1;dashed=0;align=center;verticalAlign=middle;shape=mxgraph.arrows2.twoWayArrow;dy=0.3;dx=15.67;" vertex="1" parent="1">
          <mxGeometry x="315" y="1760" width="100" height="60" as="geometry" />
        </mxCell>
        <mxCell id="DFjXbLX4fR952YsR5oUh-179" value="" style="html=1;shadow=1;dashed=0;align=center;verticalAlign=middle;shape=mxgraph.arrows2.twoWayArrow;dy=0.3;dx=15.67;" vertex="1" parent="1">
          <mxGeometry x="635" y="1720" width="100" height="60" as="geometry" />
        </mxCell>
        <mxCell id="DFjXbLX4fR952YsR5oUh-180" value="" style="html=1;shadow=1;dashed=0;align=center;verticalAlign=middle;shape=mxgraph.arrows2.twoWayArrow;dy=0.3;dx=15.67;" vertex="1" parent="1">
          <mxGeometry x="635" y="1740" width="100" height="60" as="geometry" />
        </mxCell>
        <mxCell id="DFjXbLX4fR952YsR5oUh-181" value="&lt;b&gt;&lt;font face=&quot;Times New Roman&quot;&gt;Slv_itf&lt;/font&gt;&lt;/b&gt;" style="html=1;shadow=1;dashed=0;align=center;verticalAlign=middle;shape=mxgraph.arrows2.twoWayArrow;dy=0.3;dx=15.67;" vertex="1" parent="1">
          <mxGeometry x="635" y="1760" width="100" height="60" as="geometry" />
        </mxCell>
        <mxCell id="DFjXbLX4fR952YsR5oUh-182" value="" style="html=1;shadow=1;dashed=0;align=center;verticalAlign=middle;shape=mxgraph.arrows2.arrow;dy=0.41;dx=17.24;direction=north;notch=0;" vertex="1" parent="1">
          <mxGeometry x="185" y="1620" width="30" height="40" as="geometry" />
        </mxCell>
        <mxCell id="DFjXbLX4fR952YsR5oUh-183" value="" style="html=1;shadow=1;dashed=0;align=center;verticalAlign=middle;shape=mxgraph.arrows2.arrow;dy=0.41;dx=17.24;direction=north;notch=0;" vertex="1" parent="1">
          <mxGeometry x="221" y="1620" width="30" height="50" as="geometry" />
        </mxCell>
        <mxCell id="DFjXbLX4fR952YsR5oUh-184" value="" style="html=1;shadow=1;dashed=0;align=center;verticalAlign=middle;shape=mxgraph.arrows2.arrow;dy=0.41;dx=17.24;direction=north;notch=0;" vertex="1" parent="1">
          <mxGeometry x="255" y="1620" width="30" height="60" as="geometry" />
        </mxCell>
        <mxCell id="DFjXbLX4fR952YsR5oUh-185" value="" style="html=1;shadow=1;dashed=0;align=center;verticalAlign=middle;shape=mxgraph.arrows2.arrow;dy=0.46;dx=20.14;direction=south;notch=0;" vertex="1" parent="1">
          <mxGeometry x="265" y="1850" width="30" height="40" as="geometry" />
        </mxCell>
        <mxCell id="DFjXbLX4fR952YsR5oUh-186" value="" style="html=1;shadow=1;dashed=0;align=center;verticalAlign=middle;shape=mxgraph.arrows2.arrow;dy=0.46;dx=20.14;direction=south;notch=0;" vertex="1" parent="1">
          <mxGeometry x="230" y="1850" width="30" height="40" as="geometry" />
        </mxCell>
        <mxCell id="DFjXbLX4fR952YsR5oUh-187" value="" style="html=1;shadow=1;dashed=0;align=center;verticalAlign=middle;shape=mxgraph.arrows2.arrow;dy=0.46;dx=20.14;direction=south;notch=0;" vertex="1" parent="1">
          <mxGeometry x="191" y="1850" width="30" height="40" as="geometry" />
        </mxCell>
        <mxCell id="DFjXbLX4fR952YsR5oUh-188" value="" style="html=1;shadow=1;dashed=0;align=center;verticalAlign=middle;shape=mxgraph.arrows2.arrow;dy=0.46;dx=20.14;direction=south;notch=0;" vertex="1" parent="1">
          <mxGeometry x="845" y="1850" width="30" height="40" as="geometry" />
        </mxCell>
        <mxCell id="DFjXbLX4fR952YsR5oUh-189" value="" style="html=1;shadow=1;dashed=0;align=center;verticalAlign=middle;shape=mxgraph.arrows2.arrow;dy=0.46;dx=20.14;direction=south;notch=0;" vertex="1" parent="1">
          <mxGeometry x="810" y="1850" width="30" height="40" as="geometry" />
        </mxCell>
        <mxCell id="DFjXbLX4fR952YsR5oUh-190" value="" style="html=1;shadow=1;dashed=0;align=center;verticalAlign=middle;shape=mxgraph.arrows2.arrow;dy=0.46;dx=20.14;direction=south;notch=0;" vertex="1" parent="1">
          <mxGeometry x="771" y="1850" width="30" height="40" as="geometry" />
        </mxCell>
        <mxCell id="DFjXbLX4fR952YsR5oUh-191" value="&lt;b&gt;&lt;font face=&quot;Times New Roman&quot;&gt;Slave Generator&lt;/font&gt;&lt;/b&gt;" style="rounded=1;whiteSpace=wrap;html=1;shadow=1;" vertex="1" parent="1">
          <mxGeometry x="945" y="1650" width="160" height="80" as="geometry" />
        </mxCell>
        <mxCell id="DFjXbLX4fR952YsR5oUh-192" value="" style="html=1;shadow=1;dashed=0;align=center;verticalAlign=middle;shape=mxgraph.arrows2.twoWayArrow;dy=0.42;dx=15.4;" vertex="1" parent="1">
          <mxGeometry x="85" y="1660" width="80" height="30" as="geometry" />
        </mxCell>
        <mxCell id="DFjXbLX4fR952YsR5oUh-193" value="&lt;b&gt;&lt;font face=&quot;Times New Roman&quot;&gt;Slave Generator&lt;/font&gt;&lt;/b&gt;" style="rounded=1;whiteSpace=wrap;html=1;shadow=1;" vertex="1" parent="1">
          <mxGeometry x="945" y="1650" width="160" height="80" as="geometry" />
        </mxCell>
        <mxCell id="DFjXbLX4fR952YsR5oUh-194" value="&lt;b&gt;&lt;font face=&quot;Times New Roman&quot;&gt;Slave Generator&lt;/font&gt;&lt;/b&gt;" style="rounded=1;whiteSpace=wrap;html=1;shadow=1;" vertex="1" parent="1">
          <mxGeometry x="955" y="1660" width="160" height="80" as="geometry" />
        </mxCell>
        <mxCell id="DFjXbLX4fR952YsR5oUh-195" value="&lt;b&gt;&lt;font face=&quot;Times New Roman&quot;&gt;Slave Generator&lt;/font&gt;&lt;/b&gt;" style="rounded=1;whiteSpace=wrap;html=1;shadow=1;" vertex="1" parent="1">
          <mxGeometry x="965" y="1670" width="160" height="80" as="geometry" />
        </mxCell>
        <mxCell id="DFjXbLX4fR952YsR5oUh-196" value="&lt;b&gt;&lt;font face=&quot;Times New Roman&quot;&gt;Master Generator&lt;/font&gt;&lt;/b&gt;" style="rounded=1;whiteSpace=wrap;html=1;shadow=1;" vertex="1" parent="1">
          <mxGeometry x="-75" y="1640" width="160" height="80" as="geometry" />
        </mxCell>
        <mxCell id="DFjXbLX4fR952YsR5oUh-197" value="&lt;b&gt;&lt;font face=&quot;Times New Roman&quot;&gt;Master Generator&lt;/font&gt;&lt;/b&gt;" style="rounded=1;whiteSpace=wrap;html=1;shadow=1;" vertex="1" parent="1">
          <mxGeometry x="-75" y="1640" width="160" height="80" as="geometry" />
        </mxCell>
        <mxCell id="DFjXbLX4fR952YsR5oUh-198" value="&lt;b&gt;&lt;font face=&quot;Times New Roman&quot;&gt;Master Generator&lt;/font&gt;&lt;/b&gt;" style="rounded=1;whiteSpace=wrap;html=1;shadow=1;" vertex="1" parent="1">
          <mxGeometry x="-65" y="1650" width="160" height="80" as="geometry" />
        </mxCell>
        <mxCell id="DFjXbLX4fR952YsR5oUh-199" value="" style="html=1;shadow=1;dashed=0;align=center;verticalAlign=middle;shape=mxgraph.arrows2.twoWayArrow;dy=0.42;dx=15.4;" vertex="1" parent="1">
          <mxGeometry x="95" y="1680" width="80" height="30" as="geometry" />
        </mxCell>
        <mxCell id="DFjXbLX4fR952YsR5oUh-200" value="" style="html=1;shadow=1;dashed=0;align=center;verticalAlign=middle;shape=mxgraph.arrows2.twoWayArrow;dy=0.42;dx=15.4;" vertex="1" parent="1">
          <mxGeometry x="105" y="1700" width="80" height="30" as="geometry" />
        </mxCell>
        <mxCell id="DFjXbLX4fR952YsR5oUh-201" value="&lt;b&gt;&lt;font face=&quot;Times New Roman&quot;&gt;Master Generator&lt;/font&gt;&lt;/b&gt;" style="rounded=1;whiteSpace=wrap;html=1;shadow=1;" vertex="1" parent="1">
          <mxGeometry x="-55" y="1660" width="160" height="80" as="geometry" />
        </mxCell>
        <mxCell id="DFjXbLX4fR952YsR5oUh-202" value="" style="html=1;shadow=1;dashed=0;align=center;verticalAlign=middle;shape=mxgraph.arrows2.twoWayArrow;dy=0.42;dx=15.4;" vertex="1" parent="1">
          <mxGeometry x="865" y="1660" width="80" height="30" as="geometry" />
        </mxCell>
        <mxCell id="DFjXbLX4fR952YsR5oUh-203" value="" style="html=1;shadow=1;dashed=0;align=center;verticalAlign=middle;shape=mxgraph.arrows2.twoWayArrow;dy=0.42;dx=15.4;" vertex="1" parent="1">
          <mxGeometry x="875" y="1680" width="80" height="30" as="geometry" />
        </mxCell>
        <mxCell id="DFjXbLX4fR952YsR5oUh-204" value="" style="html=1;shadow=1;dashed=0;align=center;verticalAlign=middle;shape=mxgraph.arrows2.twoWayArrow;dy=0.42;dx=15.4;" vertex="1" parent="1">
          <mxGeometry x="885" y="1700" width="80" height="30" as="geometry" />
        </mxCell>
        <mxCell id="DFjXbLX4fR952YsR5oUh-205" value="&lt;b&gt;&lt;font face=&quot;Times New Roman&quot;&gt;Slave Driver&lt;/font&gt;&lt;/b&gt;" style="rounded=0;whiteSpace=wrap;html=1;shadow=1;" vertex="1" parent="1">
          <mxGeometry x="745" y="1660" width="120" height="60" as="geometry" />
        </mxCell>
        <mxCell id="DFjXbLX4fR952YsR5oUh-206" value="&lt;b&gt;&lt;font face=&quot;Times New Roman&quot;&gt;Slave Driver&lt;/font&gt;&lt;/b&gt;" style="rounded=0;whiteSpace=wrap;html=1;shadow=1;" vertex="1" parent="1">
          <mxGeometry x="745" y="1660" width="120" height="60" as="geometry" />
        </mxCell>
        <mxCell id="DFjXbLX4fR952YsR5oUh-207" value="&lt;b&gt;&lt;font face=&quot;Times New Roman&quot;&gt;Slave Driver&lt;/font&gt;&lt;/b&gt;" style="rounded=0;whiteSpace=wrap;html=1;shadow=1;" vertex="1" parent="1">
          <mxGeometry x="755" y="1670" width="120" height="60" as="geometry" />
        </mxCell>
        <mxCell id="DFjXbLX4fR952YsR5oUh-208" value="&lt;b&gt;&lt;font face=&quot;Times New Roman&quot;&gt;Slave Driver&lt;/font&gt;&lt;/b&gt;" style="rounded=0;whiteSpace=wrap;html=1;shadow=1;" vertex="1" parent="1">
          <mxGeometry x="765" y="1680" width="120" height="60" as="geometry" />
        </mxCell>
        <mxCell id="DFjXbLX4fR952YsR5oUh-209" value="" style="html=1;shadow=1;dashed=0;align=center;verticalAlign=middle;shape=mxgraph.arrows2.arrow;dy=0.41;dx=17.24;direction=north;notch=0;" vertex="1" parent="1">
          <mxGeometry x="755" y="1620" width="30" height="40" as="geometry" />
        </mxCell>
        <mxCell id="DFjXbLX4fR952YsR5oUh-210" value="" style="html=1;shadow=1;dashed=0;align=center;verticalAlign=middle;shape=mxgraph.arrows2.arrow;dy=0.41;dx=17.24;direction=north;notch=0;" vertex="1" parent="1">
          <mxGeometry x="791" y="1620" width="30" height="50" as="geometry" />
        </mxCell>
        <mxCell id="DFjXbLX4fR952YsR5oUh-211" value="" style="html=1;shadow=1;dashed=0;align=center;verticalAlign=middle;shape=mxgraph.arrows2.arrow;dy=0.41;dx=17.24;direction=north;notch=0;" vertex="1" parent="1">
          <mxGeometry x="825" y="1620" width="30" height="60" as="geometry" />
        </mxCell>
        <mxCell id="DFjXbLX4fR952YsR5oUh-212" value="&lt;b&gt;&lt;font face=&quot;Times New Roman&quot;&gt;ahb_cells&lt;/font&gt;&lt;/b&gt;" style="rounded=1;whiteSpace=wrap;html=1;shadow=1;" vertex="1" parent="1">
          <mxGeometry x="-75" y="1810" width="160" height="60" as="geometry" />
        </mxCell>
        <mxCell id="DFjXbLX4fR952YsR5oUh-213" value="&lt;b&gt;&lt;font face=&quot;Times New Roman&quot;&gt;Config&lt;/font&gt;&lt;/b&gt;" style="rounded=1;whiteSpace=wrap;html=1;shadow=1;" vertex="1" parent="1">
          <mxGeometry x="-75" y="1910" width="160" height="60" as="geometry" />
        </mxCell>
        <mxCell id="DFjXbLX4fR952YsR5oUh-215" value="&lt;font style=&quot;font-size: 24px&quot;&gt;&lt;b&gt;&lt;font style=&quot;font-size: 24px&quot; face=&quot;Times New Roman&quot;&gt;Test Layer&lt;/font&gt;&lt;/b&gt;&lt;/font&gt;" style="text;html=1;strokeColor=none;fillColor=none;align=center;verticalAlign=middle;whiteSpace=wrap;rounded=0;shadow=1;" vertex="1" parent="1">
          <mxGeometry x="990" y="1360" width="120" height="20" as="geometry" />
        </mxCell>
        <mxCell id="DFjXbLX4fR952YsR5oUh-217" value="&lt;font style=&quot;font-size: 24px&quot;&gt;&lt;b&gt;&lt;font face=&quot;Times New Roman&quot;&gt;Environment Layer&lt;br&gt;&lt;/font&gt;&lt;/b&gt;&lt;/font&gt;" style="text;html=1;strokeColor=none;fillColor=none;align=center;verticalAlign=middle;whiteSpace=wrap;rounded=0;shadow=1;" vertex="1" parent="1">
          <mxGeometry x="990" y="1500" width="120" height="20" as="geometry" />
        </mxCell>
        <mxCell id="DFjXbLX4fR952YsR5oUh-218" value="&lt;font style=&quot;font-size: 24px&quot;&gt;&lt;b&gt;&lt;font face=&quot;Times New Roman&quot;&gt;Functional Layer&lt;/font&gt;&lt;/b&gt;&lt;/font&gt;" style="text;html=1;strokeColor=none;fillColor=none;align=center;verticalAlign=middle;whiteSpace=wrap;rounded=0;shadow=1;" vertex="1" parent="1">
          <mxGeometry x="400" y="1520" width="250" height="20" as="geometry" />
        </mxCell>
        <mxCell id="DFjXbLX4fR952YsR5oUh-219" value="&lt;b&gt;&lt;font face=&quot;Times New Roman&quot;&gt;Testcase&lt;/font&gt;&lt;/b&gt;" style="rounded=1;whiteSpace=wrap;html=1;shadow=1;" vertex="1" parent="1">
          <mxGeometry x="-75" y="1360" width="160" height="60" as="geometry" />
        </mxCell>
        <mxCell id="DFjXbLX4fR952YsR5oUh-220" value="&lt;font style=&quot;font-size: 18px&quot;&gt;&lt;b&gt;&lt;font face=&quot;Times New Roman&quot;&gt;Functional Coverage&lt;/font&gt;&lt;/b&gt;&lt;/font&gt;" style="rounded=1;whiteSpace=wrap;html=1;shadow=1;" vertex="1" parent="1">
          <mxGeometry x="165" y="1360" width="720" height="60" as="geometry" />
        </mxCell>
        <mxCell id="DFjXbLX4fR952YsR5oUh-221" value="&lt;font style=&quot;font-size: 20px&quot;&gt;&lt;b&gt;&lt;font face=&quot;Times New Roman&quot;&gt;Command Layer&lt;/font&gt;&lt;/b&gt;&lt;/font&gt;" style="text;html=1;strokeColor=none;fillColor=none;align=center;verticalAlign=middle;whiteSpace=wrap;rounded=0;shadow=1;fontSize=20;" vertex="1" parent="1">
          <mxGeometry x="400" y="1650" width="250" height="20" as="geometry" />
        </mxCell>
      </root>
    </mxGraphModel>
  </diagram>
</mxfile>
